<svg id="arrow" fill="none" xmlns="http://www.w3.org/2000/svg">
<path d="M11.5552 8.69148C11.6671 8.57952 11.8203 8.50881 11.9971 8.50881L19.1507 8.50881C19.4924 8.50881 19.7753 8.79165 19.7753 9.13342L19.7753 16.287C19.7753 16.6288 19.4924 16.9116 19.1507 16.9116C18.8089 16.9116 18.5261 16.6288 18.5261 16.287L18.5261 9.75803L11.9971 9.75803C11.6553 9.75803 11.3725 9.47519 11.3725 9.13342C11.3666 8.96254 11.4432 8.80344 11.5552 8.69148Z" fill="white"/>
<path d="M8.69133 18.7089L18.6085 8.7917C18.8501 8.55011 19.2508 8.55011 19.4924 8.7917C19.734 9.0333 19.734 9.43399 19.4924 9.67558L9.57521 19.5928C9.33362 19.8344 8.93292 19.8344 8.69133 19.5928C8.44973 19.3512 8.44973 18.9505 8.69133 18.7089Z" fill="white"/>
</svg>
