<svg id="donationsSmb" viewBox="0 0 30 30" fill="none" xmlns="http://www.w3.org/2000/svg">
<path d="M27.3 10.6497C27.075 10.5897 26.91 10.7097 26.775 10.8747C26.565 11.1747 26.28 11.3547 25.92 11.4297C25.905 11.3997 25.89 11.3847 25.89 11.3697C25.875 11.3247 25.875 11.2797 25.875 11.2347C25.77 10.5447 25.425 9.98969 24.855 9.58469C24.45 9.29969 23.865 9.29969 23.49 9.58469C23.115 9.86969 22.995 10.3347 23.145 10.8447C23.31 11.3847 23.67 11.7597 24.165 12.0297C24.255 12.0747 24.345 12.1347 24.45 12.1947C24.075 12.4497 23.715 12.6147 23.31 12.6747C23.265 12.6747 23.16 12.5997 23.13 12.5397C22.605 11.5647 21.9 10.7547 21.015 10.0947C20.595 9.77969 20.145 9.50969 19.725 9.22469C19.53 9.53969 19.38 9.79469 19.185 10.0497C18.27 11.2647 16.635 11.8347 15.195 11.4597C13.605 11.0247 12.48 9.76469 12.285 8.18969C12.27 8.00969 12.195 7.97969 12.045 7.99469C11.895 8.00969 11.7 8.03969 11.595 7.96469C10.275 7.16969 8.85004 6.64469 7.32004 6.47969C6.99004 6.44969 6.64504 6.46469 6.30004 6.46469C6.18004 6.46469 6.07504 6.58469 6.10504 6.70469C6.31504 7.70969 6.81004 8.57969 7.45504 9.38969C7.38004 9.44969 7.33504 9.47969 7.29004 9.50969C6.09004 10.3497 5.20504 11.3847 4.71004 12.7497C4.68004 12.8397 4.57504 12.9447 4.47004 12.9747C3.96004 13.1097 3.43504 13.2447 2.91004 13.3347C2.41504 13.4097 2.04004 13.7547 2.07004 14.2197C2.13004 15.0597 2.26504 15.8847 2.61004 16.6497C3.01504 17.5797 3.66004 18.1947 4.74004 18.2547C4.83004 18.2547 4.90504 18.2547 4.98004 18.2847C5.08504 18.3297 5.22004 18.3747 5.28004 18.4647C5.89504 19.3947 6.69004 20.1447 7.62004 20.7597C7.75504 20.8497 7.81504 20.9397 7.77004 21.1047C7.56004 21.9297 7.35004 22.7697 7.14004 23.5947C6.99004 24.1647 7.23004 24.4797 7.81504 24.4947C8.64004 24.4947 9.48004 24.4947 10.305 24.4947C10.725 24.4947 10.905 24.3597 11.04 23.9547C11.19 23.4747 11.34 23.0097 11.475 22.5297C11.52 22.3647 11.595 22.3347 11.76 22.3647C12 22.4097 12.24 22.4547 12.495 22.4847C13.935 22.6497 15.36 22.5897 16.77 22.2897C16.83 22.2747 16.875 22.2897 16.965 22.2897C16.845 22.7397 16.725 23.1747 16.605 23.5947C16.44 24.1647 16.695 24.4947 17.28 24.4947C18.075 24.4947 18.855 24.4947 19.65 24.4947C20.19 24.4947 20.34 24.3897 20.505 23.8797C20.91 22.6947 21.195 21.4797 21.39 20.2497C21.405 20.1447 21.495 19.9797 21.57 19.9047C22.305 19.2297 22.905 18.4497 23.295 17.5347C23.82 16.3347 23.925 15.1047 23.595 13.8297C23.55 13.6647 23.565 13.5897 23.76 13.5297C24.36 13.3647 24.93 13.0947 25.35 12.6297C25.5 12.4647 25.65 12.4047 25.86 12.3747C26.55 12.2847 27.105 11.9547 27.525 11.3847C27.75 11.0847 27.63 10.7247 27.3 10.6497ZM22.575 16.4547C22.17 17.8947 21.165 18.7947 20.655 19.1547C20.475 19.2897 20.37 19.5147 20.385 19.7397C20.43 20.9547 20.055 22.3797 19.845 23.0697C19.77 23.3247 19.53 23.5047 19.26 23.5047L17.82 23.5197C17.7 23.5197 17.625 23.4147 17.64 23.2947L18.075 21.3897C18.135 21.1647 17.895 20.9547 17.67 21.0447C15.195 22.0497 12.15 21.5697 11.115 21.3597C10.905 21.3147 10.71 21.4347 10.635 21.6297L10.11 23.2497C10.05 23.4297 9.88504 23.5497 9.69004 23.5347L8.38504 23.4897C8.23504 23.4897 8.13004 23.3397 8.20504 23.0247C8.20504 23.0247 8.56504 21.5397 8.74504 20.7897C8.80504 20.5497 8.68504 20.3097 8.46004 20.2197C7.17004 19.6497 6.13504 18.1947 5.71504 17.5347C5.59504 17.3397 5.37004 17.2197 5.14504 17.2197C3.52504 17.2347 3.13504 15.6897 3.04504 14.8647C3.01504 14.5797 3.21004 14.3097 3.49504 14.2497L4.81504 13.9797C5.13004 13.9197 5.38504 13.6797 5.49004 13.3797C6.04504 11.6847 7.62004 10.4997 8.43004 9.98969C8.65504 9.83969 8.70004 9.52469 8.49004 9.32969C7.69504 8.54969 7.30504 7.49969 7.23004 7.25969C7.21504 7.22969 7.24504 7.21469 7.26004 7.21469C9.73504 7.52969 11.505 9.02969 11.505 9.02969C12.225 12.1047 15.285 12.4197 15.285 12.4197C18.09 12.9447 19.89 10.8147 19.89 10.8147C20.685 11.0697 21.42 11.9397 21.915 12.6597C22.665 13.7847 22.935 15.1647 22.575 16.4547ZM24.9 11.3847C24.48 11.2197 24.165 10.9947 24.03 10.5747C23.97 10.3647 24.06 10.2597 24.24 10.3047C24.54 10.3797 24.96 11.0397 24.9 11.3847Z" fill="white"/>
<path d="M9.40507 12.9148C9.40507 13.3648 9.03007 13.7248 8.58007 13.7248C8.13007 13.7248 7.77007 13.3648 7.75507 12.9148C7.74007 12.4648 8.11507 12.0898 8.56507 12.0898C9.01507 12.0898 9.40507 12.4648 9.40507 12.9148Z" fill="white"/>
<path d="M16.1549 10.7847C17.9399 10.7847 19.3949 9.32969 19.3949 7.54469C19.3949 5.75969 17.9399 4.30469 16.1549 4.30469C14.3699 4.30469 12.8999 5.75969 12.8999 7.54469C12.8999 9.32969 14.3699 10.7847 16.1549 10.7847ZM16.1549 4.91969C17.6099 4.91969 18.7799 6.10469 18.7799 7.54469C18.7799 8.98469 17.5949 10.1697 16.1549 10.1697C14.7149 10.1697 13.5299 8.98469 13.5299 7.54469C13.5299 6.10469 14.6999 4.91969 16.1549 4.91969Z" fill="white"/>
</svg>
