<svg id="globe" fill="none" xmlns="http://www.w3.org/2000/svg">
<path d="M18.3333 9.49996C18.3333 14.1023 14.6023 17.8333 9.99996 17.8333M18.3333 9.49996C18.3333 4.89759 14.6023 1.16663 9.99996 1.16663M18.3333 9.49996C18.3333 8.11925 14.6023 6.99996 9.99996 6.99996C5.39759 6.99996 1.66663 8.11925 1.66663 9.49996M18.3333 9.49996C18.3333 10.8807 14.6023 12 9.99996 12C5.39759 12 1.66663 10.8807 1.66663 9.49996M9.99996 17.8333C5.39759 17.8333 1.66663 14.1023 1.66663 9.49996M9.99996 17.8333C11.8409 17.8333 13.3333 14.1023 13.3333 9.49996C13.3333 4.89759 11.8409 1.16663 9.99996 1.16663M9.99996 17.8333C8.15901 17.8333 6.66663 14.1023 6.66663 9.49996C6.66663 4.89759 8.15901 1.16663 9.99996 1.16663M1.66663 9.49996C1.66663 4.89759 5.39759 1.16663 9.99996 1.16663" stroke="#303F5F" stroke-width="1.5"/>
</svg>
