<svg id="lamp" fill="none" xmlns="http://www.w3.org/2000/svg">
<path fill-rule="evenodd" clip-rule="evenodd" d="M7.49959 2.332C7.15769 2.332 6.87592 2.07465 6.83741 1.74309L6.83293 1.66534L6.83293 0.998672C6.83293 0.630472 7.13139 0.332005 7.49959 0.332005C7.84149 0.332005 8.12327 0.589356 8.16178 0.920922L8.16626 0.998672L8.16626 1.66534C8.16626 2.03354 7.86779 2.332 7.49959 2.332ZM10.7994 3.69887C10.5391 3.43854 10.5391 3.0164 10.7994 2.75607L11.2708 2.28467C11.5312 2.02427 11.9533 2.02427 12.2136 2.28467C12.474 2.545 12.474 2.96714 12.2136 3.22747L11.7422 3.69887C11.4819 3.9592 11.0598 3.9592 10.7994 3.69887ZM3.25699 3.69887L2.78559 3.2274C2.52526 2.96707 2.52526 2.545 2.78559 2.2846C3.04593 2.02427 3.46806 2.02427 3.72839 2.2846L4.19979 2.756C4.46013 3.0164 4.46013 3.43847 4.19979 3.69887C3.93946 3.9592 3.51733 3.9592 3.25699 3.69887ZM7.08813 13.6654C6.41566 13.6654 5.84846 13.1647 5.76506 12.4975L5.51173 10.4706C4.30946 9.78072 3.49959 8.4843 3.49959 6.99874C3.49959 4.7896 5.29046 2.99874 7.49959 2.99874C9.70873 2.99874 11.4996 4.7896 11.4996 6.99874C11.4996 8.4843 10.6898 9.78072 9.48747 10.4706L9.23411 12.4975C9.15071 13.1647 8.58353 13.6654 7.91106 13.6654L7.08813 13.6654ZM7.49959 9.6654C8.97235 9.6654 10.1663 8.4715 10.1663 6.99874C10.1663 5.526 8.97235 4.33207 7.49959 4.33207C6.02686 4.33207 4.83293 5.526 4.83293 6.99874C4.83293 8.4715 6.02686 9.6654 7.49959 9.6654ZM12.8329 7.66534C12.4647 7.66534 12.1663 7.36687 12.1663 6.99867C12.1663 6.63047 12.4647 6.332 12.8329 6.332L13.4996 6.332C13.8678 6.332 14.1663 6.63047 14.1663 6.99867C14.1663 7.36687 13.8678 7.66534 13.4996 7.66534L12.8329 7.66534ZM1.49959 7.66534C1.13139 7.66534 0.832926 7.36687 0.832926 6.99867C0.832926 6.63047 1.13139 6.332 1.49959 6.332L2.16626 6.332C2.53446 6.332 2.83293 6.63047 2.83293 6.99867C2.83293 7.36687 2.53446 7.66534 2.16626 7.66534L1.49959 7.66534ZM7.08813 12.3321L7.91106 12.3321L8.07773 10.9987L6.92146 10.9987L7.08813 12.3321Z" fill="white"/>
</svg>
