<svg id="link" fill="none" xmlns="http://www.w3.org/2000/svg">
<path d="M7.58326 6.85609C7.47242 6.85609 7.36159 6.81526 7.27409 6.72776C7.10493 6.55859 7.10493 6.27859 7.27409 6.10943L12.0574 1.32609C12.2266 1.15693 12.5066 1.15693 12.6758 1.32609C12.8449 1.49526 12.8449 1.77526 12.6758 1.94443L7.89242 6.72776C7.80492 6.81526 7.69409 6.85609 7.58326 6.85609Z" fill="currentColor"/>
<path d="M12.8334 4.40547C12.5943 4.40547 12.3959 4.20714 12.3959 3.96797V1.60547H10.0334C9.79428 1.60547 9.59595 1.40714 9.59595 1.16797C9.59595 0.928802 9.79428 0.730469 10.0334 0.730469H12.8334C13.0726 0.730469 13.2709 0.928802 13.2709 1.16797V3.96797C13.2709 4.20714 13.0726 4.40547 12.8334 4.40547Z" fill="currentColor"/>
<path d="M8.75008 13.2721H5.25008C2.08258 13.2721 0.729248 11.9188 0.729248 8.7513V5.2513C0.729248 2.0838 2.08258 0.730469 5.25008 0.730469H6.41675C6.65591 0.730469 6.85425 0.928802 6.85425 1.16797C6.85425 1.40714 6.65591 1.60547 6.41675 1.60547H5.25008C2.56091 1.60547 1.60425 2.56214 1.60425 5.2513V8.7513C1.60425 11.4405 2.56091 12.3971 5.25008 12.3971H8.75008C11.4392 12.3971 12.3959 11.4405 12.3959 8.7513V7.58464C12.3959 7.34547 12.5942 7.14714 12.8334 7.14714C13.0726 7.14714 13.2709 7.34547 13.2709 7.58464V8.7513C13.2709 11.9188 11.9176 13.2721 8.75008 13.2721Z" fill="currentColor"/>
</svg>
