<svg id="usersSmb" viewBox="0 0 20 22" fill="none" xmlns="http://www.w3.org/2000/svg">
<path d="M6.27157 0C2.82071 0 0 2.82071 0 6.27157C0 9.72244 2.82071 12.5431 6.27157 12.5431C6.57165 12.5431 6.87172 12.5131 7.15679 12.4831C6.85672 12.108 6.93174 11.4479 7.39685 11.2228C7.03676 11.3128 6.66167 11.3578 6.27157 11.3578C3.46587 11.3578 1.1853 9.07728 1.1853 6.27157C1.1853 3.48087 3.46587 1.2003 6.27157 1.2003C8.14704 1.2003 9.79746 2.22056 10.6677 3.73594C11.0578 3.61591 11.4329 3.46587 11.808 3.34584C10.7427 1.36534 8.65717 0 6.27157 0Z" fill="white"/>
<path d="M17.5695 8.92952V6.54392C17.5695 4.11331 15.589 2.13281 13.1584 2.13281C10.7278 2.13281 8.74732 4.11331 8.74732 6.54392V8.92952C7.50201 9.18458 6.57178 10.2799 6.57178 11.5852V18.817C6.57178 20.3174 7.78708 21.5327 9.28746 21.5327H17.0444C18.5448 21.5327 19.7601 20.3174 19.7601 18.817V11.5852C19.7601 10.2648 18.8148 9.16958 17.5695 8.92952ZM13.1584 3.72321C14.7188 3.72321 15.9791 4.99853 15.9791 6.54392V8.8695H10.3377V6.54392C10.3377 4.98353 11.598 3.72321 13.1584 3.72321ZM18.8148 18.817C18.8148 19.7922 18.0196 20.5874 17.0444 20.5874H9.28746C8.31221 20.5874 7.51701 19.7922 7.51701 18.817V11.5852C7.51701 10.6099 8.31221 9.81474 9.28746 9.81474H17.0444C18.0196 9.81474 18.8148 10.6099 18.8148 11.5852V18.817Z" fill="white"/>
<path d="M14.8089 14.0885C14.8089 13.1883 14.0737 12.4531 13.1735 12.4531C12.2733 12.4531 11.5381 13.1883 11.5381 14.0885C11.5381 14.5987 11.7631 15.0488 12.1232 15.3489L11.5681 17.9595H14.7939L14.1487 15.4089C14.5388 15.1088 14.8089 14.6287 14.8089 14.0885Z" fill="white"/>
</svg>
