<svg id="usersBg" fill="none" xmlns="http://www.w3.org/2000/svg">
<rect y="63.7405" width="2" height="32.5006" rx="1" fill="white"/>
<rect x="5" y="66.3062" width="2" height="29.9348" rx="1" fill="white"/>
<rect x="10" y="62.03" width="2" height="34.2112" rx="1" fill="white"/>
<rect x="15" y="51.7664" width="2" height="44.4746" rx="1" fill="white"/>
<rect x="20" y="58.6089" width="2" height="37.6323" rx="1" fill="white"/>
<rect x="25" y="53.4771" width="2" height="42.764" rx="1" fill="white"/>
<rect x="30" y="49.2007" width="2" height="47.0404" rx="1" fill="white"/>
<rect x="35" y="60.3193" width="2" height="35.9218" rx="1" fill="white"/>
<rect x="40" y="60.3193" width="2" height="35.9218" rx="1" fill="white"/>
<rect x="45" y="65.4509" width="2" height="30.7901" rx="1" fill="white"/>
<rect x="50" y="54.3323" width="2" height="41.9087" rx="1" fill="white"/>
<rect x="55" y="55.1875" width="2" height="41.0534" rx="1" fill="white"/>
<rect x="60" y="51.7664" width="2" height="44.4746" rx="1" fill="white"/>
<rect x="65" y="49.2007" width="2" height="47.0404" rx="1" fill="white"/>
<rect x="70" y="59.4639" width="2" height="36.777" rx="1" fill="white"/>
<rect x="75" y="58.6089" width="2" height="37.6323" rx="1" fill="white"/>
<rect x="80" y="56.0427" width="2" height="40.1982" rx="1" fill="white"/>
<rect x="85" y="52.6218" width="2" height="43.6193" rx="1" fill="white"/>
<rect x="90" y="67.1615" width="2" height="29.0795" rx="1" fill="white"/>
<rect x="95" y="76.5696" width="2" height="19.6714" rx="1" fill="white"/>
<rect x="100" y="56.0427" width="2" height="40.1982" rx="1" fill="white"/>
<rect x="105" y="49.2007" width="2" height="47.0404" rx="1" fill="white"/>
<rect x="110" y="56.0427" width="2" height="40.1982" rx="1" fill="white"/>
<rect x="115" y="62.885" width="2" height="33.3559" rx="1" fill="white"/>
<rect x="120" y="63.7405" width="2" height="32.5006" rx="1" fill="white"/>
<rect x="125" y="62.885" width="2" height="33.3559" rx="1" fill="white"/>
<rect x="130" y="51.7664" width="2" height="44.4746" rx="1" fill="white"/>
<rect x="135" y="70.5826" width="2" height="25.6584" rx="1" fill="white"/>
<rect y="29.5291" width="2" height="32.5006" rx="1" fill="#5D83F9"/>
<rect x="5" y="34.6609" width="2" height="29.9348" rx="1" fill="#5D83F9"/>
<rect x="10" y="26.1082" width="2" height="34.2112" rx="1" fill="#5D83F9"/>
<rect x="15" y="5.5813" width="2" height="44.4746" rx="1" fill="#5D83F9"/>
<rect x="20" y="19.2661" width="2" height="37.6323" rx="1" fill="#5D83F9"/>
<rect x="25" y="9.00269" width="2" height="42.764" rx="1" fill="#5D83F9"/>
<rect x="30" y="0.449707" width="2" height="47.0404" rx="1" fill="#5D83F9"/>
<rect x="35" y="22.687" width="2" height="35.9218" rx="1" fill="#5D83F9"/>
<rect x="40" y="22.687" width="2" height="35.9218" rx="1" fill="#5D83F9"/>
<rect x="45" y="32.9504" width="2" height="30.7901" rx="1" fill="#5D83F9"/>
<rect x="50" y="10.7134" width="2" height="41.9087" rx="1" fill="#5D83F9"/>
<rect x="55" y="12.4236" width="2" height="41.0534" rx="1" fill="#5D83F9"/>
<rect x="60" y="5.5813" width="2" height="44.4746" rx="1" fill="#5D83F9"/>
<rect x="65" y="0.449707" width="2" height="47.0404" rx="1" fill="#5D83F9"/>
<rect x="70" y="20.9766" width="2" height="36.777" rx="1" fill="#5D83F9"/>
<rect x="75" y="19.2661" width="2" height="37.6323" rx="1" fill="#5D83F9"/>
<rect x="80" y="14.1343" width="2" height="40.1982" rx="1" fill="#5D83F9"/>
<rect x="85" y="6.43701" width="2" height="43.6193" rx="1" fill="#5D83F9"/>
<rect x="90" y="36.3716" width="2" height="29.0795" rx="1" fill="#5D83F9"/>
<rect x="95" y="55.1875" width="2" height="19.6714" rx="1" fill="#5D83F9"/>
<rect x="100" y="14.1343" width="2" height="40.1982" rx="1" fill="#5D83F9"/>
<rect x="105" y="0.449707" width="2" height="47.0404" rx="1" fill="#5D83F9"/>
<rect x="110" y="14.1343" width="2" height="40.1982" rx="1" fill="#5D83F9"/>
<rect x="115" y="27.8188" width="2" height="33.3559" rx="1" fill="#5D83F9"/>
<rect x="120" y="29.5291" width="2" height="32.5006" rx="1" fill="#5D83F9"/>
<rect x="125" y="27.8188" width="2" height="33.3559" rx="1" fill="#5D83F9"/>
<rect x="130" y="5.5813" width="2" height="44.4746" rx="1" fill="#5D83F9"/>
<rect x="135" y="43.2136" width="2" height="25.6584" rx="1" fill="#5D83F9"/>
</svg>
