<svg id="medium" fill="none" xmlns="http://www.w3.org/2000/svg">
<path d="M8.15822 0.0200844C5.10105 0.315737 2.36791 2.16709 0.983724 4.88428C0.494153 5.84515 0.205342 6.77082 0.0468479 7.88656C-0.0235939 8.37932 -0.0130276 9.66048 0.0679805 10.2095C0.205342 11.188 0.494153 12.1137 0.937937 13.0042C1.81494 14.771 3.21673 16.1719 4.98834 17.0518C7.85884 18.4808 11.2541 18.2837 13.9309 16.5344C14.977 15.8516 15.9702 14.8379 16.6465 13.7609C16.9071 13.3526 17.2945 12.5572 17.4706 12.0785C17.6503 11.5928 17.8581 10.7551 17.932 10.2095C18.013 9.65696 18.0236 8.3758 17.9532 7.88656C17.7453 6.42589 17.2804 5.17993 16.5091 4.01844C16.1851 3.52568 15.8575 3.12444 15.3996 2.66336C13.9943 1.24493 12.2474 0.365011 10.2503 0.0693588C9.82065 0.00600433 8.60905 -0.0221519 8.15822 0.0200844ZM8.03143 7.29174C8.7288 8.81224 9.3029 10.0441 9.30994 10.0265C9.31347 10.0124 9.8136 8.77 10.4194 7.27062L11.5183 4.54287L13.0786 4.53231L14.6353 4.52527V4.62734C14.6353 4.71533 14.5579 4.80332 14.1423 5.19753L13.6492 5.66213V8.99526V12.3284L14.1246 12.793C14.5191 13.1802 14.6001 13.2787 14.6001 13.3632V13.4652H12.3988H10.1975V13.3667C10.1975 13.2857 10.2856 13.1802 10.6906 12.7824L11.1837 12.3002L11.1802 9.68864V7.07703L10.7329 8.20333C10.4863 8.82279 9.91927 10.2518 9.47548 11.3781L8.6654 13.4301H8.4893H8.31319L6.85153 10.2447L5.38986 7.05944L5.37929 9.2522C5.37577 10.4559 5.37929 11.4907 5.38986 11.5541C5.40395 11.6315 5.61175 11.9096 6.05905 12.4516C6.54863 13.0429 6.70712 13.2611 6.71064 13.3315V13.4301H5.03765H3.36466V13.3421C3.36466 13.2822 3.55133 13.0323 3.98454 12.5079C4.32619 12.0961 4.62909 11.7089 4.65374 11.6456C4.69601 11.5505 4.70305 11.0578 4.70305 8.89319C4.70305 7.43604 4.68896 6.21823 4.67135 6.17248C4.65374 6.12672 4.38606 5.78179 4.0726 5.40871C3.63586 4.88076 3.50554 4.70125 3.50554 4.62382V4.52527H5.13627H6.77052L8.03143 7.29174Z" fill="#303F5F"/>
</svg>
