<svg id="telegram" fill="none" xmlns="http://www.w3.org/2000/svg">
<path d="M8.14409 0.0225773C5.88759 0.255079 3.88103 1.2661 2.33914 2.94292C0.16361 5.30668 -0.565088 8.73429 0.452273 11.8202C0.91343 13.2187 1.64213 14.3883 2.70877 15.4381C4.12393 16.8295 5.84183 17.6644 7.89767 17.9568C8.31658 18.0167 9.70005 18.0132 10.133 17.9533C12.1959 17.6679 13.9737 16.7873 15.4029 15.3394C16.8251 13.8986 17.6594 12.1901 17.9551 10.1117C18.015 9.696 18.015 8.30804 17.9551 7.89236C17.7861 6.7052 17.4412 5.63429 16.9166 4.68668C16.5048 3.93633 16.026 3.2952 15.4029 2.66463C14.0018 1.24497 12.2593 0.364283 10.2563 0.0683727C9.82326 0.00496483 8.57356 -0.0232182 8.14409 0.0225773ZM13.2133 5.45815C13.3682 5.52509 13.4421 5.67304 13.4421 5.91963C13.4421 6.14509 11.953 13.2187 11.8756 13.3737C11.7629 13.5921 11.52 13.6732 11.2736 13.5816C11.1891 13.5499 10.3759 12.9616 9.18609 12.0774L8.89039 11.859L8.25322 12.4684C7.78502 12.9123 7.58084 13.0884 7.49636 13.106C7.43299 13.1201 7.37315 13.1236 7.36611 13.1131C7.35555 13.1025 7.38019 12.5917 7.42243 11.9717L7.49636 10.8515L7.7463 10.6225C7.88007 10.4957 8.83406 9.63259 9.86199 8.70259C10.8934 7.76907 11.7348 6.98702 11.7348 6.95884C11.7348 6.92009 11.6961 6.906 11.6116 6.90952C11.5095 6.91304 10.9885 7.22657 8.87631 8.55464C7.44355 9.45998 6.25018 10.1998 6.22906 10.1998C6.13401 10.1998 3.91271 9.48464 3.8071 9.42123C3.5818 9.28032 3.63109 9.07248 3.92327 8.90691C4.00072 8.86464 4.56044 8.63566 5.16945 8.40316C5.77846 8.16714 6.92959 7.72327 7.72166 7.41679C8.51724 7.11032 9.93239 6.56429 10.8723 6.20145C12.9317 5.40531 12.9106 5.41236 13.0126 5.40884C13.0549 5.40884 13.1464 5.42997 13.2133 5.45815Z" fill="#303F5F"/>
</svg>
