<svg id='x' fill="none" xmlns="http://www.w3.org/2000/svg">
<path d="M7.2 9.74286C7.17241 9.77143 7.17241 9.77143 7.17241 9.8C6.01379 11.1714 4.85517 12.5429 3.66897 13.9429C3.3931 14.2857 3.11724 14.6 2.81379 14.9429C2.78621 14.9714 2.75862 15 2.70345 15C1.93103 15 1.15862 15 0.386207 15C0.358621 15 0.358621 15 0.331034 15C0.331034 15 0.331034 15 0.331034 14.9714C0.331034 14.9714 0.331034 14.9714 0.331034 14.9429C2.2069 12.7143 4.11034 10.4857 5.98621 8.25714C4.02759 5.45714 2.01379 2.74286 0 0C0.0275862 0 0.0551725 0 0.0827587 0C1.71034 0 3.36552 0 4.9931 0C5.04828 0 5.07586 0.0285714 5.10345 0.0571428C6.17931 1.51429 7.25517 3 8.30345 4.45714C8.35862 4.54286 8.44138 4.62857 8.49655 4.71429C8.49655 4.74286 8.52414 4.74286 8.55172 4.77143C8.57931 4.74286 8.57931 4.71429 8.6069 4.71429C9.26897 3.94286 9.90345 3.17143 10.5655 2.4C11.2276 1.62857 11.8897 0.828571 12.5517 0.0571428C12.5793 0.0285714 12.6069 0 12.6621 0C13.4345 0 14.2069 0 14.9793 0C15.0069 0 15.0069 0 15.0621 0C13.269 2.11429 11.5034 4.22857 9.71035 6.34286C11.7793 9.22857 13.8759 12.0857 16 14.9714C15.9724 14.9714 15.9448 14.9714 15.9172 14.9714C14.3172 14.9714 12.7172 14.9714 11.1448 14.9714C11.0897 14.9714 11.0621 14.9429 11.0345 14.9143C10.2897 13.8857 9.54483 12.8857 8.77241 11.8571C8.27586 11.1714 7.75172 10.4857 7.25517 9.8C7.22759 9.77143 7.2 9.77143 7.2 9.74286ZM2.86897 1.45714C2.89655 1.51429 2.95172 1.54286 2.97931 1.6C4.13793 3.17143 5.32414 4.77143 6.51034 6.37143C7.83448 8.17143 9.15862 9.94286 10.4828 11.7429C10.8966 12.2857 11.3103 12.8571 11.6966 13.4C11.7241 13.4286 11.7517 13.4571 11.7793 13.4571C12.1931 13.4571 12.6069 13.4571 13.0207 13.4571C13.0483 13.4571 13.0483 13.4571 13.0759 13.4571C13.0483 13.4286 13.0483 13.4 13.0207 13.4C12.6345 12.8571 12.2207 12.3143 11.8345 11.7714C10.4276 9.85714 9.02069 7.91429 7.61379 6C6.53793 4.51429 5.43448 3.02857 4.35862 1.54286C4.33103 1.48571 4.30345 1.48571 4.24828 1.48571C3.8069 1.48571 3.3931 1.48571 2.95172 1.48571C2.92414 1.42857 2.89655 1.42857 2.86897 1.45714Z" fill="#303F5F"/>
</svg>
