<svg id='youtube' fill="none" xmlns="http://www.w3.org/2000/svg">
<path d="M8.14465 0.0225792C5.32858 0.314959 2.86101 1.84731 1.36145 4.23567C-0.764678 7.61742 -0.366908 12.0912 2.31891 15.0326C3.80791 16.6636 5.66651 17.6394 7.89824 17.9564C8.31361 18.0163 9.69701 18.0128 10.1335 17.9564C12.1716 17.6746 13.995 16.7693 15.3819 15.3532C15.8396 14.8882 15.9346 14.779 16.2373 14.3774C17.1385 13.1762 17.7263 11.7107 17.9551 10.1115C18.015 9.69578 18.015 8.30785 17.9551 7.89218C17.8038 6.82482 17.5257 5.91597 17.0857 5.02474C16.614 4.08067 16.1352 3.40785 15.3855 2.65048C13.995 1.24142 12.2561 0.364277 10.2567 0.0683746C9.82373 0.00496674 8.5741 -0.0232143 8.14465 0.0225792ZM10.9607 5.09167C13.1291 5.16917 13.5902 5.25372 13.9985 5.63416C14.3365 5.9512 14.4773 6.3704 14.5723 7.36378C14.6322 7.97673 14.6357 9.93532 14.5758 10.5694C14.4843 11.5276 14.3963 11.8904 14.1851 12.1722C13.8929 12.5597 13.6043 12.7076 12.9566 12.7887C11.2212 13.0071 6.18748 12.9859 4.84633 12.7534C4.1564 12.6337 3.71991 12.225 3.57558 11.5557C3.40662 10.7878 3.3327 9.1709 3.41014 7.92741C3.49814 6.4796 3.60374 6.06745 3.97687 5.67291C4.2972 5.33474 4.59993 5.23963 5.61019 5.16213C6.84926 5.06349 9.3274 5.03179 10.9607 5.09167Z" fill="#303F5F"/>
<path d="M7.88086 9.00188V10.6927L8.04982 10.5976C10.2147 9.35766 10.799 9.01597 10.799 9.00188C10.799 8.98779 10.2147 8.64609 8.04982 7.40612L7.88086 7.311V9.00188Z" fill="#303F5F"/>
</svg>
